<?xml version="1.0" encoding="UTF-8" standalone="no"?>
<!DOCTYPE svg PUBLIC "-//W3C//DTD SVG 1.1//EN"
 "http://www.w3.org/Graphics/SVG/1.1/DTD/svg11.dtd">
<!-- Generated by graphviz version 2.47.0 (20210316.0004)
 -->
<!-- Title: dependencies Pages: 1 -->
<svg width="1014pt" height="284pt"
 viewBox="0.00 0.00 1014.00 284.00" xmlns="http://www.w3.org/2000/svg" xmlns:xlink="http://www.w3.org/1999/xlink">
<g id="graph0" class="graph" transform="scale(1 1) rotate(0) translate(4 280)">
<title>dependencies</title>
<polygon fill="white" stroke="transparent" points="-4,4 -4,-280 1010,-280 1010,4 -4,4"/>
<text text-anchor="start" x="482.01" y="-42.4" font-family="Times-12" font-weight="bold" font-size="14.00">Legend</text>
<polygon fill="#ffffb3" stroke="transparent" points="269,-10 269,-30 289,-30 289,-10 269,-10"/>
<text text-anchor="start" x="292.63" y="-15.4" font-family="Times-12" font-size="14.00"> &#160;Declarations</text>
<polygon fill="#8dd3c7" stroke="transparent" points="382,-10 382,-30 402,-30 402,-10 382,-10"/>
<text text-anchor="start" x="405.73" y="-15.4" font-family="Times-12" font-size="14.00"> &#160;Module</text>
<polygon fill="#80b1d3" stroke="transparent" points="468,-10 468,-30 488,-30 488,-10 468,-10"/>
<text text-anchor="start" x="491.78" y="-15.4" font-family="Times-12" font-size="14.00"> &#160;Bootstrap</text>
<polygon fill="#fdb462" stroke="transparent" points="565,-10 565,-30 585,-30 585,-10 565,-10"/>
<text text-anchor="start" x="588.67" y="-15.4" font-family="Times-12" font-size="14.00"> &#160;Providers</text>
<polygon fill="#fb8072" stroke="transparent" points="661,-10 661,-30 681,-30 681,-10 661,-10"/>
<text text-anchor="start" x="684.73" y="-15.4" font-family="Times-12" font-size="14.00"> &#160;Exports</text>
<g id="clust1" class="cluster">
<title>cluster_AppModule</title>
<polygon fill="none" stroke="black" stroke-dasharray="1,5" points="8,-70 8,-268 998,-268 998,-70 8,-70"/>
</g>
<g id="clust2" class="cluster">
<title>cluster_AppModule_declarations</title>
<polygon fill="none" stroke="black" points="16,-78 16,-130 990,-130 990,-78 16,-78"/>
</g>
<g id="clust12" class="cluster">
<title>cluster_AppModule_bootstrap</title>
<polygon fill="none" stroke="black" points="457,-208 457,-260 581,-260 581,-208 457,-208"/>
</g>
<!-- AppComponent -->
<g id="node1" class="node">
<title>AppComponent</title>
<polygon fill="#ffffb3" stroke="black" points="981.94,-122 876.06,-122 876.06,-86 981.94,-86 981.94,-122"/>
<text text-anchor="middle" x="929" y="-99.8" font-family="Times,serif" font-size="14.00">AppComponent</text>
</g>
<!-- AppModule -->
<g id="node8" class="node">
<title>AppModule</title>
<polygon fill="#8dd3c7" stroke="black" points="560.66,-187 557.66,-191 536.66,-191 533.66,-187 477.34,-187 477.34,-151 560.66,-151 560.66,-187"/>
<text text-anchor="middle" x="519" y="-164.8" font-family="Times,serif" font-size="14.00">AppModule</text>
</g>
<!-- AppComponent&#45;&gt;AppModule -->
<g id="edge1" class="edge">
<title>AppComponent&#45;&gt;AppModule</title>
<path fill="none" stroke="black" d="M929,-122.29C929,-144.21 929,-178 929,-178 929,-178 570.95,-178 570.95,-178"/>
<polygon fill="black" stroke="black" points="570.95,-174.5 560.95,-178 570.95,-181.5 570.95,-174.5"/>
</g>
<!-- BlogpostComponent -->
<g id="node2" class="node">
<title>BlogpostComponent</title>
<polygon fill="#ffffb3" stroke="black" points="857.89,-122 726.11,-122 726.11,-86 857.89,-86 857.89,-122"/>
<text text-anchor="middle" x="792" y="-99.8" font-family="Times,serif" font-size="14.00">BlogpostComponent</text>
</g>
<!-- BlogpostComponent&#45;&gt;AppModule -->
<g id="edge2" class="edge">
<title>BlogpostComponent&#45;&gt;AppModule</title>
<path fill="none" stroke="black" d="M792,-122.11C792,-141.34 792,-169 792,-169 792,-169 570.76,-169 570.76,-169"/>
<polygon fill="black" stroke="black" points="570.76,-165.5 560.76,-169 570.76,-172.5 570.76,-165.5"/>
</g>
<!-- BodyComponent -->
<g id="node3" class="node">
<title>BodyComponent</title>
<polygon fill="#ffffb3" stroke="black" points="707.67,-122 596.33,-122 596.33,-86 707.67,-86 707.67,-122"/>
<text text-anchor="middle" x="652" y="-99.8" font-family="Times,serif" font-size="14.00">BodyComponent</text>
</g>
<!-- BodyComponent&#45;&gt;AppModule -->
<g id="edge3" class="edge">
<title>BodyComponent&#45;&gt;AppModule</title>
<path fill="none" stroke="black" d="M652,-122.03C652,-138.4 652,-160 652,-160 652,-160 570.72,-160 570.72,-160"/>
<polygon fill="black" stroke="black" points="570.72,-156.5 560.72,-160 570.72,-163.5 570.72,-156.5"/>
</g>
<!-- FooterComponent -->
<g id="node4" class="node">
<title>FooterComponent</title>
<polygon fill="#ffffb3" stroke="black" points="577.88,-122 460.12,-122 460.12,-86 577.88,-86 577.88,-122"/>
<text text-anchor="middle" x="519" y="-99.8" font-family="Times,serif" font-size="14.00">FooterComponent</text>
</g>
<!-- FooterComponent&#45;&gt;AppModule -->
<g id="edge4" class="edge">
<title>FooterComponent&#45;&gt;AppModule</title>
<path fill="none" stroke="black" d="M519,-122.11C519,-122.11 519,-140.99 519,-140.99"/>
<polygon fill="black" stroke="black" points="515.5,-140.99 519,-150.99 522.5,-140.99 515.5,-140.99"/>
</g>
<!-- HelloComponent -->
<g id="node5" class="node">
<title>HelloComponent</title>
<polygon fill="#ffffb3" stroke="black" points="442.44,-122 329.56,-122 329.56,-86 442.44,-86 442.44,-122"/>
<text text-anchor="middle" x="386" y="-99.8" font-family="Times,serif" font-size="14.00">HelloComponent</text>
</g>
<!-- HelloComponent&#45;&gt;AppModule -->
<g id="edge5" class="edge">
<title>HelloComponent&#45;&gt;AppModule</title>
<path fill="none" stroke="black" d="M386,-122.03C386,-138.4 386,-160 386,-160 386,-160 467.28,-160 467.28,-160"/>
<polygon fill="black" stroke="black" points="467.28,-163.5 477.28,-160 467.28,-156.5 467.28,-163.5"/>
</g>
<!-- NavHeaderComponent -->
<g id="node6" class="node">
<title>NavHeaderComponent</title>
<polygon fill="#ffffb3" stroke="black" points="311.56,-122 166.44,-122 166.44,-86 311.56,-86 311.56,-122"/>
<text text-anchor="middle" x="239" y="-99.8" font-family="Times,serif" font-size="14.00">NavHeaderComponent</text>
</g>
<!-- NavHeaderComponent&#45;&gt;AppModule -->
<g id="edge6" class="edge">
<title>NavHeaderComponent&#45;&gt;AppModule</title>
<path fill="none" stroke="black" d="M239,-122.11C239,-141.34 239,-169 239,-169 239,-169 467.08,-169 467.08,-169"/>
<polygon fill="black" stroke="black" points="467.08,-172.5 477.08,-169 467.08,-165.5 467.08,-172.5"/>
</g>
<!-- SidebarComponent -->
<g id="node7" class="node">
<title>SidebarComponent</title>
<polygon fill="#ffffb3" stroke="black" points="148.1,-122 23.9,-122 23.9,-86 148.1,-86 148.1,-122"/>
<text text-anchor="middle" x="86" y="-99.8" font-family="Times,serif" font-size="14.00">SidebarComponent</text>
</g>
<!-- SidebarComponent&#45;&gt;AppModule -->
<g id="edge7" class="edge">
<title>SidebarComponent&#45;&gt;AppModule</title>
<path fill="none" stroke="black" d="M86,-122.29C86,-144.21 86,-178 86,-178 86,-178 467.09,-178 467.09,-178"/>
<polygon fill="black" stroke="black" points="467.09,-181.5 477.09,-178 467.09,-174.5 467.09,-181.5"/>
</g>
<!-- AppComponent  -->
<g id="node9" class="node">
<title>AppComponent </title>
<polygon fill="#80b1d3" stroke="black" points="573.44,-252 464.56,-252 464.56,-216 573.44,-216 573.44,-252"/>
<text text-anchor="middle" x="519" y="-229.8" font-family="Times,serif" font-size="14.00">AppComponent </text>
</g>
<!-- AppModule&#45;&gt;AppComponent  -->
<g id="edge8" class="edge">
<title>AppModule&#45;&gt;AppComponent </title>
<path fill="none" stroke="black" stroke-dasharray="1,5" d="M519,-187.11C519,-187.11 519,-205.99 519,-205.99"/>
<polygon fill="black" stroke="black" points="515.5,-205.99 519,-215.99 522.5,-205.99 515.5,-205.99"/>
</g>
</g>
</svg>
